<svg width="33" height="33" viewBox="0 0 33 33" fill="none" xmlns="http://www.w3.org/2000/svg">
    <rect width="32" height="32" transform="translate(0.375 0.5)" fill="white" fill-opacity="0.01"/>
    <path fill-rule="evenodd" clip-rule="evenodd"
          d="M29.7087 16.5C29.7087 23.8638 23.7391 29.8333 16.3753 29.8333C9.01153 29.8333 3.04199 23.8638 3.04199 16.5C3.04199 9.13616 9.01153 3.16663 16.3753 3.16663C23.7391 3.16663 29.7087 9.13616 29.7087 16.5ZM11.4313 16.8693L15.3367 12.9293C15.6207 12.6426 15.9913 12.5 16.3633 12.5C16.7522 12.5007 17.125 12.655 17.4007 12.9293L21.3207 16.8826C21.5694 17.1347 21.7089 17.4745 21.7089 17.8286C21.7089 18.1827 21.5694 18.5226 21.3207 18.7746C21.198 18.8988 21.0519 18.9973 20.8909 19.0646C20.7299 19.1318 20.5572 19.1664 20.3827 19.1664C20.2082 19.1664 20.0354 19.1318 19.8744 19.0646C19.7134 18.9973 19.5673 18.8988 19.4447 18.7746L16.3687 15.672L13.3047 18.7613C13.1823 18.8855 13.0365 18.9841 12.8757 19.0515C12.7149 19.1188 12.5423 19.1535 12.368 19.1535C12.1937 19.1535 12.0211 19.1188 11.8603 19.0515C11.6995 18.9841 11.5537 18.8855 11.4313 18.7613C11.1822 18.5094 11.0426 18.1695 11.0426 17.8153C11.0426 17.4611 11.1822 17.1212 11.4313 16.8693Z"
          fill="#40BF6A"/>
</svg>
