<svg width="33" height="33" viewBox="0 0 33 33" fill="none" xmlns="http://www.w3.org/2000/svg">
    <rect width="32" height="32" transform="translate(0.375 0.5)" fill="white" fill-opacity="0.01"/>
    <path fill-rule="evenodd" clip-rule="evenodd"
          d="M29.7087 16.5C29.7087 23.8638 23.7391 29.8333 16.3753 29.8333C9.01153 29.8333 3.04199 23.8638 3.04199 16.5C3.04199 9.13616 9.01153 3.16663 16.3753 3.16663C23.7391 3.16663 29.7087 9.13616 29.7087 16.5ZM11.0426 15.17C11.0426 14.8157 11.1822 14.4758 11.4313 14.224C11.554 14.1002 11.7001 14.002 11.8609 13.9349C12.0218 13.8679 12.1944 13.8334 12.3687 13.8334C12.5429 13.8334 12.7155 13.8679 12.8764 13.9349C13.0373 14.002 13.1833 14.1002 13.306 14.224L16.382 17.3266L19.446 14.2373C19.5684 14.1131 19.7144 14.0144 19.8753 13.947C20.0362 13.8797 20.2089 13.845 20.3833 13.845C20.5578 13.845 20.7305 13.8797 20.8914 13.947C21.0523 14.0144 21.1982 14.1131 21.3207 14.2373C21.5694 14.4893 21.7089 14.8292 21.7089 15.1833C21.7089 15.5374 21.5694 15.8773 21.3207 16.1293L17.414 20.0693C17.13 20.356 16.7607 20.4986 16.3887 20.4986C16.0167 20.4986 15.6407 20.356 15.35 20.0693L11.4313 16.116C11.1822 15.8641 11.0426 15.5242 11.0426 15.17Z"
          fill="#DF2040"/>
</svg>
