<svg width="46" height="46" viewBox="0 0 46 46" fill="none" xmlns="http://www.w3.org/2000/svg">
<path d="M23 30.5V23M23 15.5H23.0188M15.125 39.875H30.875C34.0253 39.875 35.6004 39.875 36.8037 39.2619C37.8621 38.7226 38.7226 37.8621 39.2619 36.8037C39.875 35.6004 39.875 34.0253 39.875 30.875V15.125C39.875 11.9747 39.875 10.3996 39.2619 9.1963C38.7226 8.13789 37.8621 7.27738 36.8037 6.73809C35.6004 6.125 34.0253 6.125 30.875 6.125H15.125C11.9747 6.125 10.3996 6.125 9.1963 6.73809C8.13789 7.27738 7.27738 8.13789 6.73809 9.1963C6.125 10.3996 6.125 11.9747 6.125 15.125V30.875C6.125 34.0253 6.125 35.6004 6.73809 36.8037C7.27738 37.8621 8.13789 38.7226 9.1963 39.2619C10.3996 39.875 11.9747 39.875 15.125 39.875Z" stroke="white" stroke-width="3.75" stroke-linecap="round" stroke-linejoin="round"/>
</svg>
