<svg width="46" height="46" viewBox="0 0 46 46" fill="none" xmlns="http://www.w3.org/2000/svg">
<path d="M17.375 22.062L21.125 25.812L29.5625 17.3745M38 22.9995C38 32.2028 27.9613 38.8964 24.3087 41.0273C23.8936 41.2695 23.6861 41.3906 23.3932 41.4534C23.1658 41.5022 22.8342 41.5022 22.6068 41.4534C22.3139 41.3906 22.1064 41.2695 21.6913 41.0273C18.0387 38.8964 8 32.2028 8 22.9995V14.0325C8 12.5334 8 11.7838 8.24518 11.1395C8.46176 10.5703 8.81372 10.0625 9.27061 9.65982C9.7878 9.20403 10.4896 8.94084 11.8933 8.41448L21.9466 4.64447C22.3364 4.49829 22.5313 4.4252 22.7318 4.39623C22.9097 4.37053 23.0903 4.37053 23.2682 4.39623C23.4687 4.4252 23.6636 4.49829 24.0534 4.64447L34.1067 8.41448C35.5104 8.94084 36.2122 9.20403 36.7294 9.65982C37.1863 10.0625 37.5382 10.5703 37.7548 11.1395C38 11.7838 38 12.5334 38 14.0325V22.9995Z" stroke="white" stroke-width="3.75" stroke-linecap="round" stroke-linejoin="round"/>
</svg>
